<svg width="428" height="60" viewBox="0 0 428 60" fill="none" xmlns="http://www.w3.org/2000/svg">
<path d="M41.2874 0.728109C41.9798 0.730712 42.643 1.0076 43.1317 1.49815C43.6204 1.9887 43.8948 2.65292 43.8948 3.34536V57.1466C43.8948 57.8407 43.6191 58.5065 43.1282 58.9973C42.6374 59.4881 41.9717 59.7639 41.2776 59.7639C40.5834 59.7639 39.9177 59.4881 39.4269 58.9973C38.9361 58.5065 38.6603 57.8407 38.6603 57.1466V3.34536C38.6603 3.00083 38.7283 2.65968 38.8605 2.3415C38.9926 2.02332 39.1863 1.73436 39.4304 1.4912C39.6744 1.24803 39.9641 1.05545 40.2828 0.924501C40.6015 0.793552 40.9429 0.726814 41.2874 0.728109ZM0.857759 54.549C0.343679 55.0161 0.0362129 55.6683 0.00299885 56.3621C-0.0302152 57.0559 0.213547 57.7345 0.680655 58.2486C1.14776 58.7627 1.79996 59.0701 2.49376 59.1034C3.18757 59.1366 3.86615 58.8928 4.38023 58.4257L33.6226 31.8596C33.8917 31.6135 34.1065 31.314 34.2535 30.9803C34.4005 30.6466 34.4764 30.2859 34.4764 29.9213C34.4764 29.5566 34.4005 29.196 34.2535 28.8623C34.1065 28.5285 33.8917 28.2291 33.6226 27.9829L4.38023 1.41686C4.12568 1.18557 3.82807 1.00668 3.50439 0.890409C3.18071 0.774137 2.8373 0.722758 2.49376 0.739204C2.15022 0.75565 1.81329 0.8396 1.50219 0.98626C1.1911 1.13292 0.911943 1.33942 0.680655 1.59396C0.449366 1.84851 0.270476 2.14612 0.154204 2.4698C0.0379323 2.79348 -0.0134471 3.1369 0.00299885 3.48043C0.0194448 3.82397 0.103395 4.1609 0.250055 4.472C0.396715 4.78309 0.603212 5.06225 0.857759 5.29354L27.965 29.8918L0.857759 54.549Z" fill="#ABD037"/>
<path d="M145.938 58.4651C140.158 58.4651 134.508 56.7512 129.703 53.5402C124.897 50.3291 121.152 45.7652 118.94 40.4254C116.728 35.0857 116.149 29.21 117.277 23.5413C118.404 17.8727 121.188 12.6657 125.275 8.57881C129.361 4.49194 134.568 1.70875 140.237 0.581183C145.906 -0.546381 151.781 0.0323266 157.121 2.24412C162.461 4.45592 167.025 8.20146 170.236 13.0071C173.447 17.8128 175.161 23.4627 175.161 29.2424C175.15 36.9895 172.068 44.4164 166.59 49.8944C161.112 55.3725 153.685 58.4547 145.938 58.4651ZM145.938 5.25418C141.193 5.25224 136.554 6.65746 132.608 9.29214C128.662 11.9268 125.586 15.6726 123.769 20.0557C121.952 24.4388 121.475 29.2623 122.4 33.9162C123.324 38.5701 125.608 42.8453 128.963 46.2011C132.317 49.5569 136.591 51.8425 141.245 52.7689C145.898 53.6953 150.722 53.2208 155.106 51.4055C159.49 49.5902 163.237 46.5156 165.873 42.5705C168.509 38.6255 169.916 33.9872 169.916 29.2424C169.911 22.8836 167.384 16.7866 162.888 12.2894C158.393 7.79214 152.297 5.262 145.938 5.25418Z" fill="#ABD037"/>
<path d="M82.2681 58.4651C76.4879 58.467 70.8371 56.7548 66.0301 53.5449C61.2232 50.3351 57.4761 45.7718 55.2628 40.4322C53.0495 35.0927 52.4694 29.2166 53.5958 23.5473C54.7223 17.878 57.5047 12.6701 61.5912 8.58229C65.6776 4.49444 70.8846 1.71027 76.5535 0.581907C82.2225 -0.546455 88.0987 0.0316775 93.439 2.24318C98.7793 4.45469 103.344 8.20023 106.555 13.0061C109.767 17.812 111.481 23.4623 111.481 29.2424C111.471 36.9878 108.39 44.4132 102.914 49.891C97.4378 55.3688 90.0135 58.452 82.2681 58.4651ZM82.2681 5.25418C77.5232 5.25224 72.8844 6.65746 68.9382 9.29214C64.9921 11.9268 61.916 15.6726 60.0988 20.0557C58.2817 24.4388 57.8053 29.2623 58.7298 33.9162C59.6542 38.5701 61.9381 42.8453 65.2925 46.2011C68.6469 49.5569 72.9212 51.8425 77.5747 52.7689C82.2283 53.6953 87.052 53.2208 91.4358 51.4055C95.8197 49.5902 99.5667 46.5156 102.203 42.5705C104.839 38.6255 106.246 33.9872 106.246 29.2424C106.239 22.8844 103.71 16.7889 99.2153 12.2923C94.7204 7.79557 88.626 5.2646 82.2681 5.25418Z" fill="#ABD037"/>
<path d="M190.038 58.8685C189.344 58.8685 188.678 58.5927 188.187 58.1019C187.696 57.6111 187.421 56.9454 187.421 56.2512V28.898C187.421 28.2039 187.696 27.5382 188.187 27.0473C188.678 26.5565 189.344 26.2807 190.038 26.2807H211.074C217.44 26.2807 222.616 21.5677 222.616 15.7724C222.616 9.97704 217.44 5.25418 211.074 5.25418H190.038C189.344 5.25418 188.678 4.97844 188.187 4.48761C187.696 3.99678 187.421 3.33107 187.421 2.63693C187.421 1.94279 187.696 1.27708 188.187 0.786253C188.678 0.295423 189.344 0.019679 190.038 0.019679H211.074C220.333 0.019679 227.801 7.08429 227.801 15.7625C227.801 24.4408 220.284 31.5054 211.074 31.5054H192.655V56.2315C192.658 56.5769 192.592 56.9194 192.462 57.2392C192.331 57.559 192.139 57.8498 191.895 58.095C191.652 58.3401 191.363 58.5346 191.044 58.6674C190.725 58.8001 190.383 58.8685 190.038 58.8685Z" fill="#ABD037"/>
<path d="M409.06 59.1046C408.538 59.1048 408.027 58.9484 407.593 58.6556C407.16 58.3627 406.825 57.9468 406.63 57.4615L387.67 10.3608L368.71 57.4615C368.449 58.106 367.942 58.6205 367.302 58.8918C366.662 59.163 365.94 59.1688 365.295 58.9078C364.651 58.6469 364.136 58.1406 363.865 57.5003C363.594 56.86 363.588 56.1382 363.849 55.4936L385.24 2.36143C385.433 1.87533 385.768 1.45868 386.202 1.16563C386.635 0.872593 387.147 0.716716 387.67 0.718268C388.192 0.719377 388.703 0.876315 389.136 1.16902C389.569 1.46172 389.904 1.87689 390.1 2.36143L411.491 55.4936C411.75 56.1395 411.742 56.8618 411.469 57.5019C411.196 58.142 410.68 58.6477 410.035 58.9078C409.726 59.0355 409.395 59.1023 409.06 59.1046Z" fill="#ABD037"/>
<path d="M334.065 54.0571L299.49 31.4857H311.711C320.959 31.4857 328.486 24.4113 328.486 15.7429C328.486 7.07445 320.959 0 311.711 0H239.274C238.579 0 237.914 0.275744 237.423 0.766574C236.932 1.2574 236.656 1.92311 236.656 2.61725C236.656 3.31139 236.932 3.9771 237.423 4.46793C237.914 4.95876 238.579 5.2345 239.274 5.2345H311.711C318.067 5.2345 323.242 9.95737 323.242 15.7527C323.242 21.548 318.067 26.2611 311.711 26.2611H290.664C290.1 26.2611 289.551 26.4435 289.099 26.781C288.646 27.1186 288.315 27.5933 288.155 28.1343C287.995 28.6753 288.013 29.2536 288.208 29.7831C288.404 30.3126 288.764 30.7649 289.238 31.0725L331.202 58.4454C331.49 58.6334 331.813 58.7628 332.151 58.8262C332.489 58.8896 332.836 58.8858 333.173 58.815C333.51 58.7442 333.829 58.6078 334.113 58.4135C334.397 58.2193 334.64 57.971 334.828 57.6828C335.016 57.3947 335.145 57.0723 335.209 56.7342C335.272 56.396 335.268 56.0487 335.198 55.712C335.127 55.3753 334.99 55.0559 334.796 54.7719C334.602 54.488 334.354 54.2451 334.065 54.0571Z" fill="#ABD037"/>
<path d="M277.175 31.5349H239.274C238.606 31.494 237.979 31.1999 237.521 30.7127C237.062 30.2254 236.807 29.5817 236.807 28.9128C236.807 28.2438 237.062 27.6001 237.521 27.1128C237.979 26.6256 238.606 26.3315 239.274 26.2906H277.175C277.532 26.2687 277.891 26.3202 278.228 26.4421C278.565 26.5639 278.874 26.7535 279.135 26.9992C279.396 27.2448 279.604 27.5413 279.747 27.8704C279.889 28.1995 279.962 28.5542 279.962 28.9128C279.962 29.2713 279.889 29.626 279.747 29.9551C279.604 30.2842 279.396 30.5807 279.135 30.8264C278.874 31.072 278.565 31.2616 278.228 31.3835C277.891 31.5053 277.532 31.5569 277.175 31.5349Z" fill="#ABD037"/>
<path d="M277.175 58.8685H239.274C238.606 58.8276 237.979 58.5335 237.521 58.0462C237.062 57.559 236.807 56.9152 236.807 56.2463C236.807 55.5774 237.062 54.9336 237.521 54.4464C237.979 53.9591 238.606 53.6651 239.274 53.6241H277.175C277.532 53.6022 277.891 53.6538 278.228 53.7756C278.565 53.8975 278.874 54.0871 279.135 54.3327C279.396 54.5783 279.604 54.8748 279.747 55.2039C279.889 55.533 279.962 55.8878 279.962 56.2463C279.962 56.6048 279.889 56.9596 279.747 57.2887C279.604 57.6178 279.396 57.9143 279.135 58.1599C278.874 58.4056 278.565 58.5951 278.228 58.717C277.891 58.8389 277.532 58.8904 277.175 58.8685Z" fill="#ABD037"/>
<path d="M424.675 59.1046C424.332 59.1046 423.991 59.0369 423.674 58.9054C423.356 58.7739 423.068 58.5811 422.825 58.338C422.582 58.095 422.389 57.8065 422.257 57.4889C422.126 57.1714 422.058 56.8311 422.058 56.4874V2.95179C422.099 2.28411 422.393 1.65719 422.88 1.19888C423.368 0.740573 424.011 0.485396 424.68 0.485396C425.349 0.485396 425.993 0.740573 426.48 1.19888C426.967 1.65719 427.262 2.28411 427.302 2.95179V56.4972C427.297 57.1905 427.018 57.8537 426.526 58.3421C426.034 58.8306 425.369 59.1046 424.675 59.1046Z" fill="#ABD037"/>
<path d="M349.178 60C350.722 60 351.973 58.7489 351.973 57.2056C351.973 55.6624 350.722 54.4113 349.178 54.4113C347.635 54.4113 346.384 55.6624 346.384 57.2056C346.384 58.7489 347.635 60 349.178 60Z" fill="#ABD037"/>
</svg>
